<svg xmlns="http://www.w3.org/2000/svg" width="200" height="200" class="icon" viewBox="0 0 1509 1024"><path d="M1018.108 600.706c-8.947-8.127-20.405-13.39-30.972-7.318-8.411 4.828-13.395 15.69-12.356 26.34 1.318 13.56 11.4 21.985 22.664 25.028 11.17 3.018 23.053 1.283 35.032-2.878 2.378-.826 4.739-1.72 7.074-2.68a69.628 69.628 0 0 0-1.983-8.167c-3.888-12.6-10.987-22.625-19.46-30.325m-39.889 50.669c-1.455-12.89-6.47-25.696-17.796-29.65-9.011-3.148-19.251.74-25.032 9.22-7.359 10.792-5.271 24.792.966 35.848 6.184 10.965 15.795 19.075 26.962 25.513a140.165 140.165 0 0 0 6.733 3.644 65.313 65.313 0 0 0 3.575-7.442c4.93-12.122 5.968-24.924 4.592-37.133m-28.341-108.504c-7.628 9.701-12.867 22.395-8.07 34.673 3.816 9.776 13.125 15.985 22.56 15.367 12.015-.787 19.97-11.757 23.24-24.346 3.244-12.486 2.335-26.028-.701-39.803a184.46 184.46 0 0 0-1.994-8.15 50.16 50.16 0 0 0-7.297 1.822c-11.308 3.74-20.513 11.25-27.738 20.437m100.913-17.077c-3.022-12.54-9.562-24.429-21.26-26.56-9.313-1.695-18.975 3.773-23.66 13.079-5.96 11.85-2.174 25.384 5.36 35.348 7.47 9.884 17.983 16.398 29.833 21.011a132.121 132.121 0 0 0 7.114 2.544 68.557 68.557 0 0 0 2.63-7.93c3.388-12.78 2.846-25.621-.018-37.492m47.288-34.901c-7.862-9.46-18.565-16.477-29.776-12.133-8.92 3.456-15.19 13.426-15.47 24.137-.357 13.632 8.594 23.57 19.372 28.356 10.69 4.754 22.672 4.912 35.046 2.68a131.58 131.58 0 0 0 7.334-1.541 71.473 71.473 0 0 0-.963-8.4c-2.3-13.09-8.099-24.138-15.543-33.099m12.938-65.545c-11.279 2.321-22.302 8.67-25.19 21.69-2.304 10.37 1.656 21.756 9.431 27.857 9.895 7.761 22.118 4.668 31.536-2.971 9.338-7.574 15.978-18.878 21.065-31.856a175.903 175.903 0 0 0 2.857-7.81 53.469 53.469 0 0 0-6.74-3.658c-10.938-4.94-22.274-5.447-32.96-3.252m-79.444 7.353c1.34 12.906-.797 26.707-10.937 33.648-8.073 5.526-18.841 4.563-26.257-2.08-9.446-8.454-10.409-22.61-6.715-35.05 3.66-12.334 11.253-22.837 20.717-32.15a153.061 153.061 0 0 1 5.756-5.378 60.897 60.897 0 0 1 5.055 6.237c7.37 10.413 11.11 22.55 12.381 34.773m53.823-14.606c.74 12.967-2.03 26.624-12.475 32.951-8.317 5.041-19.024 3.439-26.128-3.632-9.04-9.004-9.349-23.2-5.087-35.402 4.225-12.101 12.295-22.14 22.176-30.875a144.2 144.2 0 0 1 5.996-5.03 62.227 62.227 0 0 1 4.76 6.529c6.878 10.833 10.054 23.174 10.758 35.459m-109.956 22.907c.144 12.996-3.251 26.47-13.976 32.172-8.541 4.537-19.158 2.303-25.924-5.182-8.612-9.528-8.264-23.72-3.445-35.653 4.778-11.835 13.3-21.382 23.57-29.52a149.22 149.22 0 0 1 6.219-4.667 63.455 63.455 0 0 1 4.452 6.802c6.37 11.228 8.971 23.742 9.104 36.048m91.403-247.01c-.86 12.96-5.279 26.046-16.403 30.666-8.853 3.68-19.262.403-25.424-7.72-7.847-10.342-6.41-24.448-.693-35.859 5.673-11.318 14.896-19.984 25.75-27.077a143.978 143.978 0 0 1 6.554-4.038 64.552 64.552 0 0 1 3.917 7.218c5.479 11.814 7.11 24.537 6.298 36.81m30.673 77.961c-11.44-.84-23.49 2.296-29.074 14.138-4.445 9.428-3.032 21.562 3.209 29.614 7.944 10.243 20.465 10.592 31.23 5.763 10.678-4.79 19.535-13.934 27.242-25.13a169.84 169.84 0 0 0 4.44-6.798 57.758 57.758 0 0 0-5.759-5.396c-9.56-7.797-20.451-11.394-31.288-12.191m-31.848 48.907c-7.128-6.953-16.384-11.634-25.197-7.003-7.017 3.686-11.38 12.425-10.797 21.188.743 11.153 8.792 18.389 17.947 21.245 9.076 2.839 18.86 1.8 28.783-1.221a111.25 111.25 0 0 0 5.867-1.966 57.719 57.719 0 0 0-1.422-6.758c-2.868-10.452-8.433-18.903-15.18-25.485m-51.071 18.907c-6.985-6.812-16.054-11.4-24.688-6.862-6.873 3.61-11.142 12.173-10.574 20.756.726 10.926 8.612 18.012 17.58 20.814 8.893 2.778 18.476 1.765 28.198-1.196a109.99 109.99 0 0 0 5.745-1.93 56.21 56.21 0 0 0-1.39-6.618c-2.81-10.24-8.26-18.518-14.871-24.964m42.006-67.333c-.824 10.086-4.424 20.21-13.148 23.642-6.941 2.727-15.011.014-19.714-6.41-5.99-8.177-4.7-19.143-.108-27.946 4.552-8.73 11.842-15.342 20.387-20.7a108.268 108.268 0 0 1 5.155-3.042 50.62 50.62 0 0 1 2.961 5.68c4.128 9.288 5.246 19.226 4.466 28.776m-94.621 81.016c-4.351-4.246-10.007-7.106-15.389-4.279-4.286 2.253-6.949 7.592-6.593 12.942.453 6.813 5.368 11.232 10.959 12.975 5.547 1.731 11.519 1.1 17.58-.744a67.599 67.599 0 0 0 3.582-1.204 34.048 34.048 0 0 0-.87-4.125c-1.749-6.384-5.144-11.544-9.27-15.564m18.569-70.249c.144 12.993-3.255 26.466-13.98 32.168-8.537 4.538-19.158 2.304-25.923-5.18-8.609-9.53-8.264-23.722-3.446-35.654 4.782-11.831 13.301-21.378 23.57-29.516a148.521 148.521 0 0 1 6.22-4.671 62.636 62.636 0 0 1 4.455 6.805c6.367 11.225 8.968 23.739 9.104 36.048m-57.573 19.018c5.152 11.61 7.311 25.406-.123 35.862-5.92 8.321-16.33 11.587-25.305 8.22-11.422-4.282-16.6-17.21-16.883-30.328-.284-13.014 3.682-25.826 9.765-38.244a174.508 174.508 0 0 1 3.784-7.286 53.54 53.54 0 0 1 6.636 3.902c10.064 6.927 17.243 16.88 22.126 27.874m-23.61-225.574c2.328 12.726 1.261 26.685-8.307 34.604-7.617 6.302-18.418 6.402-26.319.517-10.056-7.488-12.104-21.493-9.384-34.248 2.702-12.651 9.46-23.865 18.166-34.076a158.045 158.045 0 0 1 5.32-5.925 58.485 58.485 0 0 1 5.52 5.713c8.138 9.643 12.802 21.364 15.004 33.415m26.52 78.427c-2.433 10.826-7.894 21.156-17.918 23.182-7.98 1.617-16.356-2.917-20.506-10.836-5.278-10.079-2.206-21.774 4.136-30.465 6.291-8.62 15.241-14.397 25.363-18.565a117.227 117.227 0 0 1 6.08-2.307 59.125 59.125 0 0 1 2.363 6.77c3.083 10.926 2.785 21.97.482 32.221m44.542 38.007c-7.258 10.056-17.501 17.904-28.952 14.458-9.116-2.745-15.982-12.195-16.92-22.855-1.192-13.574 7.122-24.192 17.58-29.822 10.374-5.583 22.317-6.69 34.795-5.443 2.48.248 4.951.567 7.413.956a70.722 70.722 0 0 1-.446 8.457c-1.487 13.237-6.593 24.72-13.47 34.249m-154.099-38.007c2.432 10.826 7.893 21.156 17.918 23.182 7.98 1.617 16.355-2.917 20.505-10.836 5.278-10.079 2.206-21.774-4.14-30.465-6.287-8.62-15.237-14.397-25.358-18.565a117.227 117.227 0 0 0-6.08-2.307 59.125 59.125 0 0 0-2.364 6.77c-3.083 10.926-2.784 21.97-.481 32.221m121.881 88.463c2.12 9.158 1.814 19.359-4.88 25.532-5.331 4.911-13.182 5.454-19.129 1.516-7.566-5.016-9.528-15.116-7.976-24.511 1.538-9.32 6.076-17.768 12.069-25.572a119.58 119.58 0 0 1 3.668-4.541 41.566 41.566 0 0 1 4.208 3.92c6.244 6.661 10.028 14.986 12.04 23.656M784.025 97.65c7.779 9.547 13.208 22.136 8.605 34.507-3.665 9.848-12.877 16.24-22.323 15.81-12.026-.547-20.146-11.358-23.61-23.88-3.435-12.42-2.738-25.977.09-39.814a184.85 184.85 0 0 1 1.865-8.184c2.472.37 4.922.93 7.326 1.674 11.36 3.517 20.681 10.844 28.047 19.887M709.8 186.142c9.691 6.941 17.811 17.508 16.19 30.81-1.293 10.588-8.73 19.466-17.953 21.82-11.739 2.996-22.05-5.063-28.255-16.144-6.155-10.987-8.577-24.285-9.008-38.48a189.456 189.456 0 0 1-.065-8.455 48.937 48.937 0 0 1 7.46-.528c11.773.061 22.452 4.405 31.632 10.977m70.537 16.085c1.74 12.845.029 26.721-9.891 34.058-7.901 5.842-18.69 5.307-26.308-1.038-9.697-8.077-11.095-22.187-7.79-34.762 3.28-12.475 10.546-23.272 19.715-32.951a157.973 157.973 0 0 1 5.587-5.602 60.345 60.345 0 0 1 5.246 6.033c7.685 10.114 11.796 22.093 13.441 34.262m-82.911 53.971c10.577-5.02 22.873-6.496 31.553 2.637 6.913 7.276 9.062 19.269 5.472 29.186-4.566 12.618-16.308 17.57-27.874 16.977-11.472-.59-22.47-5.972-32.976-13.711a147.043 147.043 0 0 1-6.148-4.79 65.199 65.199 0 0 1 3.895-7.229c6.798-10.897 16.06-18.317 26.078-23.07m84.711 72.712c8.577-4.067 18.547-5.267 25.586 2.141 5.605 5.896 7.348 15.623 4.437 23.664-3.704 10.229-13.222 14.246-22.6 13.764-9.302-.477-18.223-4.84-26.738-11.12a116.696 116.696 0 0 1-4.988-3.88 53.298 53.298 0 0 1 3.159-5.86c5.515-8.836 13.024-14.854 21.144-18.71m32.111-52.209c-4.031 9.495-5.609 20.713.546 29.07 4.904 6.65 13.384 9.133 20.617 6.263 9.208-3.658 13.247-14.225 13.312-24.864.068-10.552-3.31-20.879-8.397-30.846a140.303 140.303 0 0 0-3.158-5.845 43.842 43.842 0 0 0-5.329 3.266c-8.073 5.78-13.768 13.966-17.591 22.955M714.601 388.54c7.014 10.279 11.458 23.357 5.918 35.225-4.409 9.45-14.078 14.907-23.455 13.546-11.936-1.736-19.194-13.305-21.68-26.125-2.469-12.708-.73-26.146 3.147-39.649a189.32 189.32 0 0 1 2.49-7.972 50.4 50.4 0 0 1 7.168 2.396c11.049 4.62 19.769 12.841 26.412 22.578m101.671-142.287c1.509 10.434.064 21.702-8.433 27.645-6.762 4.728-16.01 4.272-22.55-.895-8.325-6.575-9.543-18.037-6.726-28.244 2.796-10.122 9.008-18.878 16.855-26.721a129.358 129.358 0 0 1 4.779-4.542 49.933 49.933 0 0 1 4.505 4.908c6.6 8.228 10.143 17.965 11.57 27.85m-70.908 45.457c8.896-4.221 19.237-5.464 26.542 2.221 5.813 6.119 7.624 16.208 4.602 24.547-3.84 10.618-13.718 14.782-23.444 14.282-9.65-.495-18.906-5.019-27.741-11.533a128.128 128.128 0 0 1-5.174-4.028 55.09 55.09 0 0 1 3.276-6.08c5.72-9.168 13.514-15.41 21.94-19.408m8.594 120.395c-7.014 10.28-11.455 23.358-5.918 35.225 4.409 9.45 14.077 14.908 23.455 13.546 11.936-1.736 19.194-13.309 21.68-26.121 2.468-12.712.733-26.15-3.147-39.652a182.99 182.99 0 0 0-2.49-7.973 50.552 50.552 0 0 0-7.168 2.396c-11.049 4.621-19.769 12.842-26.412 22.579m-47.453 56.854c7 6.036 12.58 14.727 10.556 24.766-1.613 7.994-7.818 14.214-15.004 15.313-9.148 1.401-16.556-5.54-20.642-14.476-4.056-8.86-5.12-19.208-4.613-30.088.1-2.16.251-4.315.449-6.464a37.688 37.688 0 0 1 5.73.159c8.994.94 16.899 5.07 23.524 10.79m71.288 21.054c-6.995 6.04-12.579 14.731-10.552 24.77 1.61 7.995 7.818 14.214 15.004 15.313 9.148 1.402 16.553-5.54 20.642-14.476 4.053-8.86 5.12-19.208 4.61-30.087-.1-2.16-.252-4.315-.45-6.464a37.7 37.7 0 0 0-5.73.158c-8.994.941-16.894 5.07-23.524 10.786m127.72 11.683c.126 11.325-2.835 23.07-12.184 28.04-7.444 3.956-16.7 2.008-22.596-4.517-7.506-8.303-7.2-20.674-3.004-31.072 4.168-10.315 11.595-18.637 20.545-25.73a125.459 125.459 0 0 1 5.422-4.07 55.17 55.17 0 0 1 3.88 5.928c5.551 9.788 7.819 20.696 7.937 31.421m12.669-73.345c.104 9.651-2.418 19.658-10.384 23.89-6.341 3.374-14.228 1.714-19.25-3.844-6.396-7.078-6.138-17.62-2.559-26.48 3.546-8.789 9.877-15.882 17.505-21.925 1.513-1.2 3.054-2.357 4.617-3.467a47.008 47.008 0 0 1 3.31 5.052c4.727 8.339 6.66 17.634 6.761 26.774m-370.311-69.877c9.583 7.132 17.538 17.857 15.712 31.122-1.455 10.564-9.029 19.29-18.284 21.461-11.785 2.767-21.971-5.497-28.004-16.697-5.986-11.11-8.203-24.453-8.415-38.653-.04-2.82-.018-5.637.065-8.458a49.42 49.42 0 0 1 7.466-.38c11.774.294 22.38 4.846 31.46 11.605m-20.005 65.593c10.577-5.02 22.869-6.496 31.553 2.637 6.91 7.273 9.058 19.27 5.472 29.183-4.566 12.618-16.308 17.573-27.874 16.977-11.472-.59-22.474-5.968-32.976-13.711a146.955 146.955 0 0 1-6.148-4.786 64.562 64.562 0 0 1 3.895-7.23c6.798-10.897 16.06-18.32 26.078-23.07m41.028 44.052c7.926-6.227 17.814-9.881 26.369-4.082 6.808 4.613 10.427 14.056 9.004 22.927-1.811 11.289-10.707 17.688-20.315 19.492-9.529 1.79-19.413-.457-29.247-4.743a114.8 114.8 0 0 1-5.799-2.72 57.826 57.826 0 0 1 2.088-6.722c3.912-10.312 10.39-18.256 17.9-24.152m51.915 55.919c8.558-8.645 19.758-14.58 30.59-9.144 8.624 4.325 14.103 14.874 13.557 25.57-.694 13.618-10.373 22.633-21.479 26.337-11.016 3.676-22.963 2.652-35.118-.794a132.075 132.075 0 0 1-7.19-2.26 71.228 71.228 0 0 1 1.607-8.27c3.298-12.813 9.927-23.247 18.033-31.44m55.67 37.475c8.558-8.649 19.757-14.58 30.59-9.148 8.623 4.326 14.103 14.875 13.557 25.575-.694 13.614-10.37 22.628-21.48 26.336-11.012 3.676-22.962 2.648-35.117-.794a136.359 136.359 0 0 1-7.19-2.26 70.349 70.349 0 0 1 1.61-8.27c3.298-12.813 9.924-23.25 18.03-31.44M618.24 382.23c1.736 12.844.03 26.724-9.894 34.06-7.898 5.843-18.687 5.304-26.304-1.041-9.698-8.077-11.1-22.187-7.79-34.762 3.277-12.471 10.545-23.272 19.715-32.948a152.227 152.227 0 0 1 5.587-5.605 60.345 60.345 0 0 1 5.246 6.033c7.681 10.114 11.795 22.097 13.44 34.262m38.927 49.883c.536 10.556-1.944 21.59-10.937 26.49-7.16 3.906-16.32 2.354-22.345-3.556-7.67-7.527-7.825-19.068-4.085-28.888 3.712-9.737 10.7-17.706 19.226-24.58a124.433 124.433 0 0 1 5.174-3.948 51.972 51.972 0 0 1 4.028 5.415c5.806 8.964 8.43 19.068 8.94 29.067M536.633 526.65c8.559-8.649 19.758-14.58 30.591-9.148 8.623 4.326 14.103 14.875 13.556 25.575-.693 13.614-10.372 22.628-21.478 26.336-11.016 3.676-22.963 2.648-35.118-.794a134.276 134.276 0 0 1-7.19-2.26c.37-2.795.91-5.558 1.606-8.27 3.299-12.813 9.924-23.25 18.033-31.44m84.917 119.749c8.559-8.647 19.758-14.582 30.59-9.147 8.627 4.326 14.103 14.875 13.56 25.572-.693 13.617-10.372 22.632-21.478 26.34-11.016 3.675-22.963 2.648-35.118-.798a131.05 131.05 0 0 1-7.19-2.256c.37-2.796.906-5.559 1.606-8.271 3.299-12.813 9.924-23.25 18.03-31.44m302.037-9.134c2.18-10.143 1.67-21.386-5.814-28.047-5.96-5.3-14.63-5.726-21.12-1.254-8.26 5.695-10.25 16.876-8.382 27.202 1.854 10.244 7.003 19.46 13.744 27.936a130.02 130.02 0 0 0 4.124 4.926 45.982 45.982 0 0 0 4.57-4.412c6.777-7.485 10.808-16.747 12.878-26.351m-185.434-1.904c4.164-12.11 11.767-23.16 23.595-23.893 9.417-.583 18.526 5.998 22.323 15.809 4.837 12.489-.176 25.503-8.587 34.521-8.343 8.943-19.398 14.175-31.61 17.361a131.915 131.915 0 0 1-7.309 1.69 69.534 69.534 0 0 1-1.883-8.2c-2.191-13.114-.47-25.82 3.471-37.288"/><path fill="#854A3D" d="M756.894 84.877c.08.144.144.295.201.45.04.112.033.233.097.34h.1v-.113a.659.659 0 0 0-.1-.452.517.517 0 0 0-.298-.225m.298.79c-.1.289-.41.364-.693.45a8.709 8.709 0 0 0-3.284 1.805c10.373 19.142 21.842 37.496 34.227 55.033 13.94 19.74 29.074 38.387 45.868 55.035 9.755 9.67 20.379 19.31 23.882 33.494 1.502 6.088 1.491 12.242 1.294 18.495-.855 26.492-4.513 53.437-10.65 79.168a409.467 409.467 0 0 1-3.28 12.855l-129.053-117.51-5.573 7.443a48385.185 48385.185 0 0 1 89.85 82.89c9.148 8.459 18.227 17.163 24.774 28.193a67.445 67.445 0 0 1 5.076 10.488c1.38 3.643 2.419 7.39 3.28 11.278 4.762 21.45 2.613 43.442-.495 65.072-4.254 29.588-10.563 59.356-14.627 89.092-1.315 9.618-2.407 19.312-4.876 28.643-2.332 8.828-6.852 17.498-14.627 18.044-6.636.467-11.659-5.584-15.82-11.616-5.752-8.34-11.195-16.945-16.714-25.489-.7-1.085-1.405-2.17-2.091-3.27a26.38 26.38 0 0 1-.992-1.692c-1.638-3.072-2.397-6.59-2.889-10.146-4.541-32.808.482-66.524 14.308-95.804l-1.294-5.637c-9.726 17.825-16.966 37.241-21.468 57.57a228.2 228.2 0 0 0-4.976 35.524c-4.815-9.478-9.802-18.95-14.627-28.42-6.59-12.939-13.255-25.827-18.971-39.282a313.514 313.514 0 0 1-13.963-40.335c-.186 1.95-1.771 3.334-3.481 3.043-2.016-.341-4.402-1.207-4.38.79.018 1.671 2.12 1.959 2.486.338a823.782 823.782 0 0 0 46.07 116.158c5.022 10.294 9.938 20.577 15.223 30.673a498.493 498.493 0 0 1-84.076-47.136c-24.522-17.063-47.725-36.422-69.75-57.405-25.91-24.68-50.255-51.516-72.633-80.634l-4.976 3.273c14.645 23.067 30.756 44.794 48.258 64.958 17.501 20.164 36.418 38.858 56.417 55.824a354.113 354.113 0 0 1-17.714 15.561c-22.442 18.429-46.763 33.724-72.434 45.56.064.114.129.23.2.34 1.244 2.016 3.094 3.561 5.272 3.834 17.304-6.115 33.803-14.839 49.055-25.938 12.543-9.13 24.486-19.97 39.002-24.022 5.127-1.43 10.52-1.937 15.521 0 2.666 1.03 5.07 2.723 7.463 4.398 28.316 19.854 57.247 39.727 85.171 59.995a832.24 832.24 0 0 1 19.7 14.775c-10.875 7.714-21.751 15.392-32.735 22.894-36.616 25.022-74.058 48.49-112.036 70.71.122.27.255.532.399.79 1.739 3.094 4.847 4.819 8.059 4.62a1559.162 1559.162 0 0 0 69.948-43.528c11.66-7.685 23.663-15.529 35.423-22.557 12.152-7.258 24.576-13.678 38.506-12.63 5.637.425 11.185 2.196 15.82 5.865 6.643 5.256 10.581 13.67 13.83 22.215 13.847 36.411 17.856 76.257 18.306 115.867.758 66.79-8.354 133.252-26.962 196.633l114.623-6.655c-9.625-29.167-16.952-59.244-21.888-89.882-6.198-38.42-8.566-77.45-9.256-116.495-.733-41.643.726-84.004 13.905-122.937 1.013-2.993 2.13-6.015 4.179-8.235 2.666-2.886 6.374-3.92 10.05-4.283 12.5-1.243 24.41 4.372 36.249 8.953 15.324 5.932 31.115 10.183 47.158 12.698 2.033-1.423 3.754-3.873 4.275-6.525.03-.147.004-.226 0-.338-26.189-4.785-51.907-12.704-76.214-24.813a444.24 444.24 0 0 1-5.971-3.043 658.142 658.142 0 0 1-6.863-3.61 191.291 191.291 0 0 1 9.05-11.053c6.35-7.172 13.13-13.83 20.2-20.07 46.738-41.251 101.754-68.889 160.093-80.523.96-3.208 1.045-7.218-.992-9.697-.064-.08-.133-.151-.201-.226l-.198-.227c-34.999 7.351-69.147 18.903-101.886 34.734-17.864 8.637-35.157 18.805-51.94 29.775a416.304 416.304 0 0 1 3.385-11.954c9.022-30.16 21.496-58.98 36.91-85.937-.129-.04-.262-.076-.395-.112-2.206-.582-4.487-.794-6.467.453-10.998 16.884-20.21 35.075-27.663 54.243-6.262 16.115-11.292 33.027-20.494 47.252-3.424 5.292-7.373 10.11-11.444 14.774-5.127 5.867-10.466 11.505-16.218 16.578-7.47 6.59-15.518 12.26-24.178 16.69a400.324 400.324 0 0 1-6.765-78.942c.42-31.374 4.732-63.23 20.297-89.203 12.04-20.095 29.692-34.532 48.156-46.803 47.19-31.358 100.216-49.66 154.822-53.568a13.496 13.496 0 0 0-.201-.338c-1.283-2.149-2.932-3.97-4.574-5.752-13.94.8-27.813 2.568-41.492 5.188a327.259 327.259 0 0 0-40.496 10.488 1825.163 1825.163 0 0 0 31.043-64.845 1843.697 1843.697 0 0 0 28.557-66.199l-3.284-2.706a1335.742 1335.742 0 0 0-27.86 59.093c-10.502 23.762-20.426 48.038-34.726 69.131-3.076 4.539-6.41 8.97-10.844 11.729-2.17 1.35-4.527 2.24-6.866 3.157-21.734 8.534-42.422 19.83-62.187 33.381-15.044 10.314-29.409 21.848-42.983 34.51.83-12.185 1.434-24.358 2.087-36.54.938-17.434 1.869-35.26 4.48-52.327 2.541-16.6 6.659-32.462 13.33-47.704 5.078-11.592 11.416-22.24 19.105-31.576 7.786-9.45 16.912-17.499 27.066-23.683-.069-.113-.133-.226-.202-.338a163.391 163.391 0 0 0-3.582-5.752c-9.223 6.925-18.03 14.527-26.264 22.894-9.878 10.032-18.935 21.053-27.066 32.93 1.311-22.784 2.773-45.568 4.279-68.342a9824.532 9824.532 0 0 1 4.577-65.86l-12.934.338a3537.375 3537.375 0 0 1-4.678 49.734 3523.439 3523.439 0 0 1-5.372 49.62c-2.328-1.926-4.732-3.8-7.064-5.75-39.235-32.787-71.95-74.563-96.716-122.136"/></svg>